<svg width="68" height="27" viewBox="0 0 68 27" fill="none" xmlns="http://www.w3.org/2000/svg">
<path d="M63.8686 25.343L67.0265 20.0993C67.328 19.5986 67.3287 18.9725 67.0285 18.4711L56.4267 0.768801C55.8113 -0.258659 54.3215 -0.255678 53.7103 0.774235L50.5823 6.0448C50.2857 6.54467 50.2872 7.167 50.5863 7.66542L55.0639 15.1273L61.1562 25.3375C61.7681 26.3631 63.2525 26.3661 63.8686 25.343Z" fill="black"/>
<path d="M14.0739 25.3474L10.9716 20.1239C10.6753 19.625 10.676 19.0039 10.9735 18.5057L21.5587 0.778877C22.1731 -0.250037 23.6641 -0.24818 24.276 0.782265L28.9848 8.71299C29.5968 9.74363 31.0882 9.74525 31.7023 8.71593L36.4304 0.792076C37.043 -0.234673 38.5296 -0.236245 39.1445 0.789206L49.7514 18.4805C50.0507 18.9798 50.0515 19.6032 49.7534 20.1033L46.6087 25.3783C45.9957 26.4065 44.5069 26.4072 43.893 25.3796L39.1446 17.4314C38.5305 16.4036 37.0412 16.4046 36.4286 17.4332L31.6976 25.3767C31.0849 26.4053 29.5956 26.4064 28.9816 25.3785L24.2325 17.4293C23.6187 16.4019 22.1304 16.4024 21.5172 17.43L16.7914 25.3502C16.1772 26.3794 14.686 26.3779 14.0739 25.3474Z" fill="black"/>
<path d="M7.49249 1.62396C7.49246 0.0197105 5.37933 -0.564851 4.55483 0.811304L0.22775 8.03353C0.0806848 8.27899 0.00298353 8.55976 0.00293014 8.84591L3.183e-08 24.5503C-0.000300087 26.1589 2.1218 26.7405 2.94167 25.3566L7.27195 18.0472C7.41651 17.8032 7.49277 17.5248 7.49277 17.2412L7.49249 1.62396Z" fill="black"/>
</svg>
